<svg width="1440" height="644" viewBox="0 0 1440 644" fill="none" xmlns="http://www.w3.org/2000/svg">
<g filter="url(#filter0_f_1_292)">
<path d="M1312.74 435.728C1357.87 409.791 1376.32 381.392 1366.38 353.17C1356.44 324.947 1318.43 297.818 1255.89 274.304C1193.34 250.789 1108.29 231.653 1008.64 218.673C908.985 205.693 797.966 199.291 685.899 200.062C573.832 200.834 464.355 208.753 367.644 223.084C270.934 237.415 190.128 257.693 132.739 282.033C75.3494 306.373 43.2388 333.985 39.3917 362.302C35.5446 390.619 60.0858 418.723 110.734 444H703.5L1312.74 435.728Z" fill="url(#paint0_radial_1_292)"/>
<path d="M1312.74 435.728C1357.87 409.791 1376.32 381.392 1366.38 353.17C1356.44 324.947 1318.43 297.818 1255.89 274.304C1193.34 250.789 1108.29 231.653 1008.64 218.673C908.985 205.693 797.966 199.291 685.899 200.062C573.832 200.834 464.355 208.753 367.644 223.084C270.934 237.415 190.128 257.693 132.739 282.033C75.3494 306.373 43.2388 333.985 39.3917 362.302C35.5446 390.619 60.0858 418.723 110.734 444H703.5L1312.74 435.728Z" fill="url(#paint1_linear_1_292)" fill-opacity="0.4"/>
</g>
<defs>
<filter id="filter0_f_1_292" x="-161" y="0" width="1730" height="644" filterUnits="userSpaceOnUse" color-interpolation-filters="sRGB">
<feFlood flood-opacity="0" result="BackgroundImageFix"/>
<feBlend mode="normal" in="SourceGraphic" in2="BackgroundImageFix" result="shape"/>
<feGaussianBlur stdDeviation="100" result="effect1_foregroundBlur_1_292"/>
</filter>
<radialGradient id="paint0_radial_1_292" cx="0" cy="0" r="1" gradientUnits="userSpaceOnUse" gradientTransform="translate(608 303.891) rotate(67.5422) scale(251.307 922.214)">
<stop stop-color="#1A52BE"/>
<stop offset="1" stop-color="#24214B" stop-opacity="0"/>
</radialGradient>
<linearGradient id="paint1_linear_1_292" x1="891.5" y1="368.424" x2="402.582" y2="344.48" gradientUnits="userSpaceOnUse">
<stop stop-color="#75F7FF"/>
<stop offset="0.459917" stop-color="white" stop-opacity="0.540083"/>
<stop offset="1" stop-opacity="0"/>
</linearGradient>
</defs>
</svg>
