<svg width="593" height="196" viewBox="0 0 593 196" fill="none" xmlns="http://www.w3.org/2000/svg">
<g opacity="0.8" filter="url(#filter0_bdii_1_293)">
<path d="M53.2532 37C53.0714 34.7273 52.2192 32.9545 50.6964 31.6818C49.1964 30.4091 46.9123 29.7727 43.8442 29.7727C41.8896 29.7727 40.2873 30.0114 39.0373 30.4886C37.8101 30.9432 36.901 31.5682 36.3101 32.3636C35.7192 33.1591 35.4123 34.0682 35.3896 35.0909C35.3442 35.9318 35.4919 36.6932 35.8328 37.375C36.1964 38.0341 36.7646 38.6364 37.5373 39.1818C38.3101 39.7045 39.2987 40.1818 40.5032 40.6136C41.7078 41.0455 43.1396 41.4318 44.7987 41.7727L50.526 43C54.3896 43.8182 57.6964 44.8977 60.4464 46.2386C63.1964 47.5795 65.4464 49.1591 67.1964 50.9773C68.9464 52.7727 70.2305 54.7955 71.0487 57.0455C71.8896 59.2955 72.3214 61.75 72.3442 64.4091C72.3214 69 71.1737 72.8864 68.901 76.0682C66.6282 79.25 63.3782 81.6705 59.151 83.3295C54.9464 84.9886 49.8896 85.8182 43.9805 85.8182C37.9123 85.8182 32.6169 84.9205 28.0942 83.125C23.5942 81.3295 20.0942 78.5682 17.5942 74.8409C15.1169 71.0909 13.8669 66.2955 13.8442 60.4545H31.8442C31.9578 62.5909 32.4919 64.3864 33.4464 65.8409C34.401 67.2955 35.7419 68.3977 37.4692 69.1477C39.2192 69.8977 41.2987 70.2727 43.7078 70.2727C45.7305 70.2727 47.4237 70.0227 48.7873 69.5227C50.151 69.0227 51.1851 68.3295 51.8896 67.4432C52.5942 66.5568 52.9578 65.5455 52.9805 64.4091C52.9578 63.3409 52.6055 62.4091 51.9237 61.6136C51.2646 60.7955 50.1737 60.0682 48.651 59.4318C47.1282 58.7727 45.0714 58.1591 42.4805 57.5909L35.526 56.0909C29.3442 54.75 24.4692 52.5114 20.901 49.375C17.3555 46.2159 15.5942 41.9091 15.6169 36.4545C15.5942 32.0227 16.776 28.1477 19.1623 24.8295C21.5714 21.4886 24.901 18.8864 29.151 17.0227C33.4237 15.1591 38.3214 14.2273 43.8442 14.2273C49.4805 14.2273 54.3555 15.1705 58.4692 17.0568C62.5828 18.9432 65.7532 21.6023 67.9805 25.0341C70.2305 28.4432 71.3669 32.4318 71.3896 37H53.2532ZM149.111 50.0909C149.111 57.8636 147.599 64.4205 144.577 69.7614C141.554 75.0795 137.474 79.1136 132.338 81.8636C127.202 84.5909 121.474 85.9545 115.156 85.9545C108.793 85.9545 103.043 84.5795 97.9062 81.8295C92.7926 79.0568 88.7244 75.0114 85.7017 69.6932C82.7017 64.3523 81.2017 57.8182 81.2017 50.0909C81.2017 42.3182 82.7017 35.7727 85.7017 30.4545C88.7244 25.1136 92.7926 21.0795 97.9062 18.3523C103.043 15.6023 108.793 14.2273 115.156 14.2273C121.474 14.2273 127.202 15.6023 132.338 18.3523C137.474 21.0795 141.554 25.1136 144.577 30.4545C147.599 35.7727 149.111 42.3182 149.111 50.0909ZM129.611 50.0909C129.611 45.9091 129.054 42.3864 127.94 39.5227C126.849 36.6364 125.224 34.4545 123.065 32.9773C120.929 31.4773 118.293 30.7273 115.156 30.7273C112.02 30.7273 109.372 31.4773 107.213 32.9773C105.077 34.4545 103.452 36.6364 102.338 39.5227C101.247 42.3864 100.702 45.9091 100.702 50.0909C100.702 54.2727 101.247 57.8068 102.338 60.6932C103.452 63.5568 105.077 65.7386 107.213 67.2386C109.372 68.7159 112.02 69.4545 115.156 69.4545C118.293 69.4545 120.929 68.7159 123.065 67.2386C125.224 65.7386 126.849 63.5568 127.94 60.6932C129.054 57.8068 129.611 54.2727 129.611 50.0909ZM159.801 85V15.1818H208.892V30.4545H178.755V42.4545H205.892V57.7273H178.755V85H159.801ZM215.874 30.4545V15.1818H276.556V30.4545H255.556V85H236.874V30.4545H215.874ZM303.337 85L282.746 15.1818H303.882L313.428 58.1364H313.973L325.291 15.1818H341.928L353.246 58.2727H353.791L363.337 15.1818H384.473L363.882 85H345.746L333.882 46H333.337L321.473 85H303.337ZM402.51 85H382.055L405.1 15.1818H431.01L454.055 85H433.6L418.328 34.4091H417.782L402.51 85ZM398.691 57.4545H437.146V71.6364H398.691V57.4545ZM462.699 85V15.1818H492.836C498.018 15.1818 502.552 16.125 506.438 18.0114C510.324 19.8977 513.347 22.6136 515.506 26.1591C517.665 29.7045 518.745 33.9545 518.745 38.9091C518.745 43.9091 517.631 48.125 515.404 51.5568C513.199 54.9886 510.097 57.5795 506.097 59.3295C502.12 61.0795 497.472 61.9545 492.154 61.9545H474.154V47.2273H488.336C490.563 47.2273 492.461 46.9545 494.029 46.4091C495.62 45.8409 496.836 44.9432 497.677 43.7159C498.54 42.4886 498.972 40.8864 498.972 38.9091C498.972 36.9091 498.54 35.2841 497.677 34.0341C496.836 32.7614 495.62 31.8295 494.029 31.2386C492.461 30.625 490.563 30.3182 488.336 30.3182H481.654V85H462.699ZM503.608 52.9545L521.063 85H500.472L483.427 52.9545H503.608ZM528.744 85V15.1818H579.063V30.4545H547.699V42.4545H576.472V57.7273H547.699V69.7273H578.926V85H528.744ZM54.2175 181V111.182H104.536V126.455H73.172V138.455H101.945V153.727H73.172V165.727H104.399V181H54.2175ZM176.265 111.182V181H160.447L135.22 144.318H134.811V181H115.856V111.182H131.947L156.765 147.727H157.311V111.182H176.265ZM232.492 134.227C232.197 133.023 231.731 131.966 231.094 131.057C230.458 130.125 229.663 129.341 228.708 128.705C227.776 128.045 226.685 127.557 225.435 127.239C224.208 126.898 222.856 126.727 221.379 126.727C218.197 126.727 215.481 127.489 213.231 129.011C211.004 130.534 209.299 132.727 208.117 135.591C206.958 138.455 206.379 141.909 206.379 145.955C206.379 150.045 206.935 153.545 208.049 156.455C209.163 159.364 210.822 161.591 213.026 163.136C215.231 164.682 217.969 165.455 221.242 165.455C224.129 165.455 226.526 165.034 228.435 164.193C230.367 163.352 231.81 162.159 232.765 160.614C233.719 159.068 234.197 157.25 234.197 155.159L237.469 155.5H221.515V142H252.469V151.682C252.469 158.045 251.117 163.489 248.413 168.011C245.731 172.511 242.026 175.966 237.299 178.375C232.594 180.761 227.197 181.955 221.106 181.955C214.31 181.955 208.344 180.511 203.208 177.625C198.072 174.739 194.06 170.625 191.174 165.284C188.31 159.943 186.879 153.591 186.879 146.227C186.879 140.455 187.754 135.341 189.504 130.886C191.276 126.432 193.731 122.67 196.867 119.602C200.004 116.511 203.629 114.182 207.742 112.614C211.856 111.023 216.265 110.227 220.969 110.227C225.106 110.227 228.947 110.818 232.492 112C236.06 113.159 239.208 114.818 241.935 116.977C244.685 119.114 246.901 121.648 248.583 124.58C250.265 127.511 251.288 130.727 251.651 134.227H232.492ZM282.182 111.182V181H263.227V111.182H282.182ZM353.494 111.182V181H337.676L312.449 144.318H312.04V181H293.085V111.182H309.176L333.994 147.727H334.54V111.182H353.494ZM364.38 181V111.182H414.698V126.455H383.335V138.455H412.107V153.727H383.335V165.727H414.562V181H364.38ZM426.019 181V111.182H476.337V126.455H444.973V138.455H473.746V153.727H444.973V165.727H476.201V181H426.019ZM487.658 181V111.182H517.794C522.976 111.182 527.51 112.125 531.396 114.011C535.283 115.898 538.305 118.614 540.464 122.159C542.623 125.705 543.703 129.955 543.703 134.909C543.703 139.909 542.589 144.125 540.362 147.557C538.158 150.989 535.055 153.58 531.055 155.33C527.078 157.08 522.43 157.955 517.112 157.955H499.112V143.227H513.294C515.521 143.227 517.419 142.955 518.987 142.409C520.578 141.841 521.794 140.943 522.635 139.716C523.498 138.489 523.93 136.886 523.93 134.909C523.93 132.909 523.498 131.284 522.635 130.034C521.794 128.761 520.578 127.83 518.987 127.239C517.419 126.625 515.521 126.318 513.294 126.318H506.612V181H487.658ZM528.567 148.955L546.021 181H525.43L508.385 148.955H528.567Z" fill="white" style="mix-blend-mode:overlay" shape-rendering="crispEdges"/>
</g>
<defs>
<filter id="filter0_bdii_1_293" x="0.467275" y="0.850392" width="591.972" height="194.481" filterUnits="userSpaceOnUse" color-interpolation-filters="sRGB">
<feFlood flood-opacity="0" result="BackgroundImageFix"/>
<feGaussianBlur in="BackgroundImageFix" stdDeviation="2.82488"/>
<feComposite in2="SourceAlpha" operator="in" result="effect1_backgroundBlur_1_293"/>
<feColorMatrix in="SourceAlpha" type="matrix" values="0 0 0 0 0 0 0 0 0 0 0 0 0 0 0 0 0 0 127 0" result="hardAlpha"/>
<feOffset/>
<feGaussianBlur stdDeviation="6.68845"/>
<feComposite in2="hardAlpha" operator="out"/>
<feColorMatrix type="matrix" values="0 0 0 0 0 0 0 0 0 0 0 0 0 0 0 0 0 0 0.25 0"/>
<feBlend mode="normal" in2="effect1_backgroundBlur_1_293" result="effect2_dropShadow_1_293"/>
<feBlend mode="normal" in="SourceGraphic" in2="effect2_dropShadow_1_293" result="shape"/>
<feColorMatrix in="SourceAlpha" type="matrix" values="0 0 0 0 0 0 0 0 0 0 0 0 0 0 0 0 0 0 127 0" result="hardAlpha"/>
<feOffset dy="-0.495441"/>
<feGaussianBlur stdDeviation="0.171205"/>
<feComposite in2="hardAlpha" operator="arithmetic" k2="-1" k3="1"/>
<feColorMatrix type="matrix" values="0 0 0 0 1 0 0 0 0 1 0 0 0 0 1 0 0 0 0.6 0"/>
<feBlend mode="overlay" in2="shape" result="effect3_innerShadow_1_293"/>
<feColorMatrix in="SourceAlpha" type="matrix" values="0 0 0 0 0 0 0 0 0 0 0 0 0 0 0 0 0 0 127 0" result="hardAlpha"/>
<feOffset dy="1.33769"/>
<feGaussianBlur stdDeviation="0.743161"/>
<feComposite in2="hardAlpha" operator="arithmetic" k2="-1" k3="1"/>
<feColorMatrix type="matrix" values="0 0 0 0 1 0 0 0 0 1 0 0 0 0 1 0 0 0 0.1 0"/>
<feBlend mode="normal" in2="effect3_innerShadow_1_293" result="effect4_innerShadow_1_293"/>
</filter>
</defs>
</svg>
