<svg width="12" height="12" viewBox="0 0 12 12" fill="none" xmlns="http://www.w3.org/2000/svg">
<g clip-path="url(#clip0_252_737)">
<path d="M0 6C0 2.68631 2.68631 0 6 0C9.31369 0 12 2.68631 12 6L6 6.52174L0 6Z" fill="#FFDA44"/>
<path d="M0.802979 9.00002C1.84044 10.7934 3.77928 12 6.0001 12C8.22092 12 10.1598 10.7934 11.1972 9.00002L6.0001 8.6087L0.802979 9.00002Z" fill="#D80027"/>
<path d="M11.1971 9C11.7076 8.11748 12 7.09291 12 6H0C0 7.09291 0.292359 8.11748 0.802875 9H11.1971Z" fill="#0052B4"/>
<path d="M6.00003 8.08692C7.15262 8.08692 8.08698 7.15256 8.08698 5.99997C8.08698 4.84738 7.15262 3.91302 6.00003 3.91302C4.84744 3.91302 3.91309 4.84738 3.91309 5.99997C3.91309 7.15256 4.84744 8.08692 6.00003 8.08692Z" fill="#FFDA44"/>
<path d="M5.9999 7.30431C5.28067 7.30431 4.69556 6.71917 4.69556 5.99997V5.21737C4.69556 4.49814 5.2807 3.91302 5.9999 3.91302C6.7191 3.91302 7.30424 4.49817 7.30424 5.21737V5.99997C7.30424 6.7192 6.71913 7.30431 5.9999 7.30431Z" fill="#338AF3"/>
<path d="M8.08702 2.86958H6.5218C6.5218 2.58144 6.2882 2.34784 6.00005 2.34784C5.71191 2.34784 5.47831 2.58144 5.47831 2.86958H3.91309C3.91309 3.15775 4.16408 3.39132 4.4522 3.39132H4.43483C4.43483 3.67949 4.66841 3.91307 4.95657 3.91307C4.95657 4.20123 5.19015 4.43481 5.47831 4.43481H6.5218C6.80996 4.43481 7.04354 4.20123 7.04354 3.91307C7.3317 3.91307 7.56528 3.67949 7.56528 3.39132H7.54791C7.83605 3.39132 8.08702 3.15772 8.08702 2.86958Z" fill="black"/>
</g>
<defs>
<clipPath id="clip0_252_737">
<rect width="12" height="12" fill="white"/>
</clipPath>
</defs>
</svg>
