<svg width="12" height="12" viewBox="0 0 12 12" fill="none" xmlns="http://www.w3.org/2000/svg">
<g clip-path="url(#clip0_252_736)">
<path d="M0 5.99998C0 6.73391 0.132023 7.43694 0.373195 8.08693L6 8.60867L11.6268 8.08693C11.868 7.43694 12 6.73391 12 5.99998C12 5.26606 11.868 4.56303 11.6268 3.91304L6 3.3913L0.373195 3.91304C0.132023 4.56303 0 5.26606 0 5.99998H0Z" fill="#FFDA44"/>
<path d="M11.6269 3.91305C10.7791 1.62827 8.57988 0 6.0001 0C3.42031 0 1.22105 1.62827 0.373291 3.91305H11.6269Z" fill="#D80027"/>
<path d="M0.373291 8.08698C1.22105 10.3718 3.42031 12 6.0001 12C8.57988 12 10.7791 10.3718 11.6269 8.08698H0.373291Z" fill="#D80027"/>
</g>
<defs>
<clipPath id="clip0_252_736">
<rect width="12" height="12" fill="white"/>
</clipPath>
</defs>
</svg>
